<?xml version="1.0" standalone="no"?>
<!DOCTYPE svg PUBLIC "-//W3C//DTD SVG 20010904//EN"
 "http://www.w3.org/TR/2001/REC-SVG-20010904/DTD/svg10.dtd">
<svg version="1.0" xmlns="http://www.w3.org/2000/svg"
 width="204.000000pt" height="192.000000pt" viewBox="0 0 204.000000 192.000000"
 preserveAspectRatio="xMidYMid meet">

<g transform="translate(0.000000,192.000000) scale(0.100000,-0.100000)"
fill="#ffffff" stroke="none">
<path d="M365 1795 c-100 -44 -158 -74 -173 -93 -63 -77 -80 -228 -42 -378 24
-94 100 -255 174 -368 214 -327 583 -663 880 -801 232 -109 395 -122 526 -42
53 32 54 33 117 180 66 156 74 194 46 219 -44 37 -397 238 -419 238 -14 0 -59
-20 -102 -44 -122 -69 -200 -106 -222 -106 -24 0 -469 446 -484 485 -8 19 4
47 67 165 43 78 77 154 77 169 0 14 -10 42 -22 61 -12 19 -64 107 -115 195
-95 161 -114 185 -142 185 -9 -1 -83 -30 -166 -65z"/>
<path d="M930 1773 l0 -90 68 -6 c262 -22 510 -183 640 -417 44 -79 79 -191
93 -298 l12 -92 85 0 85 0 -6 93 c-29 459 -422 851 -895 892 l-82 8 0 -90z"/>
<path d="M930 1424 l0 -90 68 -10 c182 -29 329 -164 377 -345 8 -30 15 -66 15
-81 l0 -28 91 0 90 0 -6 58 c-34 306 -270 543 -573 578 l-62 7 0 -89z"/>
</g>
</svg>
