<?xml version="1.0" standalone="no"?>
<!DOCTYPE svg PUBLIC "-//W3C//DTD SVG 20010904//EN"
 "http://www.w3.org/TR/2001/REC-SVG-20010904/DTD/svg10.dtd">
<svg version="1.0" xmlns="http://www.w3.org/2000/svg"
 width="256.000000pt" height="256.000000pt" viewBox="0 0 256.000000 256.000000"
 preserveAspectRatio="xMidYMid meet">

<g transform="translate(0.000000,256.000000) scale(0.100000,-0.100000)"
fill="#ffffff" stroke="none">
<path d="M537 2344 c-4 -4 -7 -29 -7 -56 l0 -48 -73 0 c-91 0 -163 -21 -219
-63 -50 -38 -103 -112 -118 -165 -7 -24 -10 -317 -10 -842 0 -909 -4 -860 79
-952 24 -27 67 -61 95 -76 l51 -27 945 0 945 0 50 27 c60 32 114 87 146 148
l24 45 5 680 c6 850 3 984 -28 1043 -35 66 -88 119 -150 149 -45 22 -73 28
-148 31 l-93 4 -3 52 -3 51 -105 0 -105 0 -3 -52 -3 -53 -529 0 -529 0 -3 53
-3 52 -101 3 c-55 1 -103 0 -107 -4z m1640 -329 c43 -18 63 -61 63 -135 l0
-60 -960 0 -960 0 0 60 c0 74 20 117 62 135 46 19 1748 19 1795 0z m-469 -738
l72 -72 -278 -278 c-240 -240 -283 -278 -314 -283 -52 -9 -79 11 -258 191
l-155 155 78 77 77 78 123 -123 122 -122 225 225 c124 124 227 225 230 225 3
0 38 -33 78 -73z"/>
</g>
</svg>
